<?xml version="1.0" standalone="no"?>
<!DOCTYPE svg PUBLIC "-//W3C//DTD SVG 20010904//EN"
 "http://www.w3.org/TR/2001/REC-SVG-20010904/DTD/svg10.dtd">
<svg version="1.0" xmlns="http://www.w3.org/2000/svg"
 width="655.000000pt" height="593.000000pt" viewBox="0 0 655.000000 593.000000"
 preserveAspectRatio="xMidYMid meet">

<g transform="translate(0.000000,593.000000) scale(0.100000,-0.100000)"
fill="#000000" stroke="none">
<path d="M2790 5563 c0 -30 14 -41 43 -36 41 8 31 32 -20 47 -18 6 -23 3 -23
-11z"/>
<path d="M5034 5536 c-10 -8 -16 -17 -13 -20 3 -3 14 3 24 14 21 23 17 26 -11
6z"/>
<path d="M2766 5525 c-9 -26 -7 -32 5 -12 6 10 9 21 6 23 -2 3 -7 -2 -11 -11z"/>
<path d="M2740 5474 c-7 -8 10 -10 60 -10 72 1 91 10 42 21 -39 8 -91 3 -102
-11z"/>
<path d="M2770 5442 c0 -5 9 -12 21 -15 29 -8 15 -25 -16 -19 -18 3 -25 0 -25
-12 0 -9 5 -16 11 -16 7 0 9 -10 5 -26 -8 -30 8 -54 34 -54 19 0 38 -32 22
-38 -5 -1 -5 -19 2 -43 6 -24 15 -38 23 -35 8 3 15 -13 22 -47 10 -50 51 -417
51 -458 0 -10 5 -19 10 -19 6 0 10 13 10 29 0 17 5 33 10 36 7 4 7 12 0 25 -7
14 -6 19 4 22 11 2 11 13 -4 58 -20 63 -35 162 -21 141 17 -26 10 61 -10 125
-15 48 -17 68 -9 89 6 15 13 25 17 21 3 -3 13 0 22 8 26 23 242 46 264 28 6
-5 37 -12 67 -16 l55 -6 -50 14 c-101 29 -128 34 -141 29 -7 -2 -19 -1 -25 3
-16 10 -130 11 -136 2 -8 -15 -43 -8 -43 8 0 14 3 14 15 4 14 -11 15 -8 13 21
-1 19 -7 38 -13 42 -6 5 -3 7 8 3 12 -4 17 0 17 14 0 15 -7 20 -29 20 -17 0
-45 9 -64 20 -19 11 -42 18 -51 14 -12 -5 -15 -2 -10 10 4 10 1 16 -9 16 -9 0
-22 3 -31 6 -9 3 -16 2 -16 -4z"/>
<path d="M3030 5435 c-8 -9 -21 -13 -36 -9 -25 6 -30 -1 -15 -24 12 -19 58 -5
65 21 7 27 2 31 -14 12z"/>
<path d="M2992 5320 c0 -14 2 -19 5 -12 2 6 2 18 0 25 -3 6 -5 1 -5 -13z"/>
<path d="M3050 5219 c0 -5 5 -7 10 -4 6 3 10 8 10 11 0 2 -4 4 -10 4 -5 0 -10
-5 -10 -11z"/>
<path d="M3510 5211 c0 -5 5 -13 10 -16 6 -3 10 -2 10 4 0 5 -4 13 -10 16 -5
3 -10 2 -10 -4z"/>
<path d="M3253 5123 c9 -2 17 -9 17 -14 0 -5 4 -9 10 -9 5 0 7 7 4 15 -4 8
-16 14 -28 14 -16 -1 -17 -2 -3 -6z"/>
<path d="M3083 5054 c-26 -31 -24 -89 7 -141 11 -19 20 -40 20 -47 0 -9 9 -12
25 -8 l25 4 -34 32 c-18 17 -36 44 -40 60 -8 31 7 79 32 109 13 14 13 17 1 16
-8 0 -24 -12 -36 -25z"/>
<path d="M4807 5059 c-9 -6 -15 -14 -12 -19 6 -9 55 11 55 23 0 10 -22 8 -43
-4z"/>
<path d="M4940 4986 c0 -9 -12 -21 -26 -26 -19 -8 -25 -16 -21 -30 3 -13 0
-20 -10 -20 -9 0 -13 -6 -9 -15 8 -21 -15 -14 -35 10 -17 19 -16 21 4 32 22
11 22 12 -6 22 -16 6 -25 15 -22 21 14 22 -14 8 -29 -15 -18 -28 -63 -34 -72
-10 -4 8 -16 15 -27 15 -20 0 -21 0 -1 -16 18 -15 18 -15 -9 -11 -31 5 -54
-22 -36 -40 8 -8 7 -13 0 -17 -23 -14 -11 -36 19 -36 17 0 30 5 30 11 0 17 23
5 26 -14 1 -12 -5 -17 -21 -17 -13 0 -25 -3 -27 -7 -1 -5 -23 -18 -49 -29 -49
-24 -151 -96 -144 -103 3 -2 24 9 47 25 91 61 195 101 315 121 21 3 41 16 56
37 29 40 62 114 54 123 -4 3 -7 -1 -7 -11z m-253 -78 c-3 -8 -6 -5 -6 6 -1 11
2 17 5 13 3 -3 4 -12 1 -19z"/>
<path d="M4734 4965 c24 -18 39 -20 34 -2 -3 6 -15 13 -29 15 -23 2 -23 2 -5
-13z"/>
<path d="M3051 4943 c-1 -18 4 -33 9 -33 12 0 12 17 0 45 -7 17 -9 15 -9 -12z"/>
<path d="M4581 4939 c-16 -37 -10 -46 13 -20 12 13 15 25 9 35 -7 12 -11 9
-22 -15z"/>
<path d="M3327 4906 c-17 -22 -24 -41 -20 -55 5 -21 22 -29 24 -11 1 6 3 15 4
20 1 6 3 17 4 26 0 9 7 14 15 11 9 -4 16 3 19 19 6 35 -16 30 -46 -10z"/>
<path d="M3205 4850 c-3 -5 -2 -10 4 -10 5 0 13 5 16 10 3 6 2 10 -4 10 -5 0
-13 -4 -16 -10z"/>
<path d="M4374 4614 c-43 -41 -93 -87 -111 -104 -39 -36 -72 -35 -129 3 -46
32 -50 32 -63 9 -12 -23 15 -65 28 -43 7 11 15 10 42 -9 19 -13 46 -34 61 -48
34 -31 51 -21 42 24 -3 19 -2 34 3 34 5 0 41 30 79 66 38 36 86 77 107 90 20
13 37 28 37 34 0 25 -23 12 -96 -56z"/>
<path d="M2932 4605 c0 -16 2 -22 5 -12 2 9 2 23 0 30 -3 6 -5 -1 -5 -18z"/>
<path d="M4255 4609 c-9 -28 -2 -33 13 -9 6 11 8 21 3 25 -5 3 -13 -4 -16 -16z"/>
<path d="M1468 4603 c7 -3 16 -2 19 1 4 3 -2 6 -13 5 -11 0 -14 -3 -6 -6z"/>
<path d="M4210 4520 c0 -5 5 -10 11 -10 5 0 7 5 4 10 -3 6 -8 10 -11 10 -2 0
-4 -4 -4 -10z"/>
<path d="M4860 4470 c-9 -6 -10 -10 -3 -10 6 0 15 5 18 10 8 12 4 12 -15 0z"/>
<path d="M4338 4463 c7 -3 16 -2 19 1 4 3 -2 6 -13 5 -11 0 -14 -3 -6 -6z"/>
<path d="M4388 4453 c6 -2 18 -2 25 0 6 3 1 5 -13 5 -14 0 -19 -2 -12 -5z"/>
<path d="M4465 4440 c3 -5 12 -10 18 -10 7 0 33 -11 60 -25 26 -14 47 -21 47
-16 0 9 -19 20 -93 50 -34 14 -40 14 -32 1z"/>
<path d="M4140 4421 c0 -6 4 -13 10 -16 6 -3 7 1 4 9 -7 18 -14 21 -14 7z"/>
<path d="M4855 4410 c-3 -5 -2 -10 4 -10 5 0 13 5 16 10 3 6 2 10 -4 10 -5 0
-13 -4 -16 -10z"/>
<path d="M4648 4353 c7 -3 16 -2 19 1 4 3 -2 6 -13 5 -11 0 -14 -3 -6 -6z"/>
<path d="M1808 4295 c-3 -11 -9 -29 -13 -40 -3 -11 1 -7 10 8 9 16 15 33 12
40 -2 6 -6 3 -9 -8z"/>
<path d="M4200 4170 c13 -9 13 -11 0 -19 -14 -9 -8 -26 9 -26 5 0 21 -15 36
-33 25 -30 27 -37 21 -90 -12 -103 -13 -127 -6 -132 4 -3 10 -22 13 -42 l6
-38 -48 0 c-66 0 -137 -23 -182 -60 l-39 -31 6 89 7 90 -33 40 c-35 44 -44 47
-169 61 -132 14 -146 3 -157 -128 -4 -44 -10 -81 -13 -81 -4 0 -21 15 -38 34
-43 44 -98 69 -153 68 -25 0 -116 0 -202 -1 l-157 0 -43 42 c-104 101 -170
157 -194 163 -28 7 -185 -4 -200 -14 -5 -4 -47 -49 -92 -99 -92 -104 -100
-130 -58 -186 19 -26 22 -37 14 -57 l-10 -25 -11 31 c-7 18 -24 46 -39 63 -23
27 -33 31 -75 31 -26 0 -85 -7 -130 -15 -76 -13 -165 -12 -203 2 -20 8 -53 4
-64 -8 -6 -6 -3 -9 8 -9 9 0 14 -5 11 -10 -4 -6 -16 -8 -27 -4 -16 5 -20 3
-16 -8 3 -7 -5 -31 -18 -53 -13 -22 -29 -51 -35 -65 l-10 -25 -27 33 c-46 56
-142 68 -227 29 -27 -13 -84 -34 -125 -46 -99 -30 -121 -41 -133 -68 -10 -22
-12 -21 -62 30 -106 108 -273 128 -446 54 -53 -23 -131 -98 -164 -159 -27 -48
-30 -62 -30 -143 1 -73 6 -102 27 -155 14 -36 45 -119 68 -185 55 -153 78
-198 133 -260 64 -72 135 -104 250 -114 51 -4 94 -5 97 -1 3 3 24 11 46 18 99
29 192 107 237 200 23 47 36 52 55 22 16 -26 56 -26 153 -1 105 27 128 37 141
66 9 21 8 35 -5 73 -17 51 -47 163 -47 180 0 9 100 37 104 30 1 -2 14 -20 29
-40 24 -32 26 -40 15 -62 -6 -14 -17 -26 -25 -26 -15 0 -16 -4 -4 -28 4 -9 19
-51 32 -92 51 -162 195 -245 364 -210 79 16 133 42 177 85 53 52 72 98 71 178
0 37 1 67 3 67 2 0 20 -10 41 -22 43 -26 134 -29 174 -6 22 12 148 16 554 16
96 1 272 -11 280 -18 6 -5 62 -14 125 -21 l114 -12 22 26 c12 14 24 31 26 38
3 8 24 -7 54 -38 63 -65 135 -93 240 -93 44 0 89 6 111 15 43 18 46 18 40 2
-3 -8 -1 -20 3 -28 6 -8 4 -16 -3 -21 -7 -4 -13 -47 -15 -110 -4 -94 -3 -101
12 -89 14 12 16 10 17 -15 1 -28 2 -28 8 -4 9 36 31 36 28 1 -1 -16 -5 -27 -9
-24 -5 2 -8 -9 -8 -24 0 -23 5 -29 25 -31 14 -1 25 3 25 8 0 6 11 10 24 10 28
0 40 24 31 67 -3 15 -2 22 1 16 7 -15 34 -17 34 -3 0 6 5 10 11 10 6 0 8 -9 4
-20 -7 -23 23 -80 42 -80 7 0 13 -4 13 -10 0 -14 20 -12 51 4 15 7 39 11 54 8
25 -4 27 -3 20 18 -10 32 13 16 26 -18 8 -22 7 -29 -11 -42 -28 -21 -25 -73 5
-78 17 -3 18 -1 5 8 -12 9 -9 10 14 5 26 -6 28 -4 22 19 -3 13 -8 30 -11 38
-2 7 10 22 28 33 40 25 49 68 17 85 -17 9 -20 17 -15 40 6 25 2 31 -25 45 -18
9 -28 20 -24 25 7 6 100 40 110 40 8 0 9 -41 1 -49 -8 -8 -7 -11 4 -11 13 0
30 -23 45 -62 3 -10 10 -18 15 -18 5 0 9 -7 9 -15 0 -8 6 -12 13 -9 7 2 26 -7
43 -21 40 -36 104 -73 164 -96 48 -18 53 -18 82 -3 31 16 32 16 50 -6 15 -19
24 -21 60 -15 124 21 226 135 263 295 6 25 -13 135 -30 174 -7 16 -6 17 13 7
37 -20 79 -13 101 15 30 38 51 117 51 188 0 149 -148 323 -314 371 -167 48
-330 -18 -397 -161 l-15 -34 -16 32 c-36 75 -166 186 -234 200 -12 2 -19 12
-18 24 0 17 -6 21 -28 20 -15 -1 -28 -4 -28 -8 0 -17 -17 -7 -27 15 -9 19 -17
23 -42 19 -31 -4 -54 -22 -29 -22 7 0 -2 -9 -20 -20 -41 -25 -74 -27 -65 -3 7
17 4 16 -58 -3 -9 -3 -19 1 -23 11 -4 12 2 19 25 27 43 15 32 18 -25 7 -46 -8
-50 -7 -72 19 -24 28 -32 62 -14 62 6 0 10 5 10 10 0 7 -7 7 -22 0 l-23 -11
21 18 c29 26 34 138 7 159 -16 12 -16 13 0 8 15 -6 17 3 17 89 0 111 5 107
-130 107 -59 0 -80 -3 -70 -10z m-1293 -161 c141 -121 160 -148 131 -177 -7
-7 -27 -12 -45 -12 l-34 0 36 -31 c20 -18 39 -46 44 -67 5 -21 15 -129 21
-240 6 -112 15 -213 19 -225 4 -12 10 111 13 272 4 233 8 295 19 303 8 5 57 6
114 3 111 -7 113 -7 203 1 95 9 157 -23 189 -96 13 -30 14 -76 9 -299 -4 -191
-9 -267 -18 -278 -11 -13 -30 -15 -116 -9 -57 3 -108 8 -113 12 -5 3 -9 101
-9 220 0 118 -4 214 -9 214 -4 0 -12 -98 -17 -217 l-9 -218 -257 -1 c-206 0
-260 -3 -274 -15 -27 -22 -152 -19 -187 5 -45 31 -70 90 -75 181 -3 70 -1 86
21 128 17 33 20 47 11 47 -25 0 -37 41 -32 109 5 71 25 120 66 164 l26 27 -32
-6 c-47 -9 -82 2 -82 28 0 11 26 50 58 86 31 35 67 76 79 91 18 22 31 27 95
32 40 3 81 6 90 7 9 1 38 -17 65 -39z m1019 -75 c31 -8 33 -20 24 -110 -5 -43
-14 -135 -20 -204 -19 -219 -40 -434 -46 -469 l-5 -34 -112 6 c-77 5 -115 11
-126 21 -13 13 -11 53 18 333 18 175 35 343 37 373 9 111 1 104 112 96 53 -4
106 -9 118 -12z m-1486 -166 c5 -13 20 -99 34 -193 14 -93 37 -245 51 -337 31
-204 31 -203 0 -264 -43 -84 -139 -134 -261 -134 -85 0 -147 23 -189 72 -36
43 -60 119 -53 173 3 26 8 31 45 39 l43 9 -33 17 c-17 9 -46 35 -63 57 -27 36
-34 57 -53 179 -11 77 -21 153 -21 169 0 53 21 106 57 146 39 43 86 60 160 58
27 0 82 6 123 14 116 22 149 21 160 -5z m1874 -32 c109 -33 157 -91 164 -201
2 -40 2 -85 -2 -99 -8 -32 -33 -33 -156 -7 l-85 18 2 49 c1 35 -1 43 -7 28
-14 -37 -53 -245 -46 -251 3 -4 6 4 6 16 0 12 5 31 11 42 12 24 21 23 217 -17
12 -2 22 -12 22 -21 0 -30 10 -7 41 98 17 57 42 121 57 142 94 139 366 105
446 -55 36 -72 33 -111 -20 -290 -48 -161 -57 -181 -101 -223 -119 -110 -372
-43 -428 114 -8 24 -15 53 -15 65 0 18 -3 16 -20 -11 -33 -54 -90 -85 -168
-91 -182 -13 -302 94 -302 266 0 75 34 233 64 296 27 59 68 106 111 129 38 21
146 22 209 3z m-2497 -76 c18 -11 40 -36 49 -57 26 -58 82 -256 77 -271 -3 -6
-43 -24 -89 -38 -67 -21 -84 -30 -80 -43 49 -169 66 -232 66 -245 0 -17 -186
-80 -222 -74 -17 2 -26 21 -50 108 -17 58 -57 197 -89 309 -51 173 -58 207
-46 218 8 8 56 27 108 43 52 15 112 38 134 49 51 26 101 26 142 1z m-625 -1
c43 -10 62 -21 108 -68 35 -34 63 -74 73 -101 9 -25 46 -125 82 -223 72 -196
79 -244 48 -332 -21 -58 -98 -142 -161 -174 -88 -45 -206 -62 -282 -41 -55 15
-126 65 -155 109 -15 21 -54 110 -87 198 -105 277 -115 328 -77 428 33 89 122
165 234 201 51 16 149 17 217 3z m4249 -73 c174 -37 282 -154 281 -304 0 -71
-28 -159 -55 -176 -11 -7 -36 -1 -89 23 -40 18 -80 36 -88 39 -8 3 -1 -12 16
-33 69 -87 93 -167 74 -248 -24 -108 -90 -199 -167 -233 -46 -20 -154 -22
-208 -4 -224 73 -319 226 -253 409 29 79 44 90 91 68 19 -9 66 -30 104 -46 81
-35 92 -48 75 -94 -17 -47 -15 -64 10 -81 31 -22 45 -20 63 8 21 31 13 47 -69
141 -90 103 -113 136 -132 194 -28 86 -3 186 66 265 35 39 55 50 130 72 58 16
72 16 151 0z m-331 -451 c0 -7 -60 17 -66 26 -3 5 0 22 7 38 l12 28 24 -44
c13 -24 23 -46 23 -48z m-683 -155 c0 -16 -4 -27 -9 -24 -11 7 -11 54 0 54 5
0 9 -13 9 -30z m73 -239 c0 -23 -16 -36 -25 -21 -9 14 1 40 15 40 5 0 10 -9
10 -19z"/>
<path d="M2770 3850 c0 -5 7 -7 15 -4 8 4 15 8 15 10 0 2 -7 4 -15 4 -8 0 -15
-4 -15 -10z"/>
<path d="M2790 3611 c0 -17 5 -31 10 -31 6 0 10 11 10 24 0 14 -4 28 -10 31
-6 4 -10 -7 -10 -24z"/>
<path d="M2790 3365 c0 -8 5 -15 10 -15 6 0 10 7 10 15 0 8 -4 15 -10 15 -5 0
-10 -7 -10 -15z"/>
<path d="M2208 3458 c15 -100 16 -103 30 -94 13 8 -18 186 -33 186 -8 0 -8
-23 3 -92z"/>
<path d="M2261 3118 c0 -13 4 -32 8 -42 11 -29 24 -2 16 34 -8 35 -25 40 -24
8z"/>
<path d="M4731 3344 c-7 -25 -10 -48 -8 -51 3 -2 10 17 16 43 7 25 10 48 8 51
-3 2 -10 -17 -16 -43z"/>
<path d="M4711 3254 c0 -11 3 -14 6 -6 3 7 2 16 -1 19 -3 4 -6 -2 -5 -13z"/>
<path d="M4701 3223 c-1 -6 -4 -20 -7 -30 -5 -17 -5 -17 6 0 6 10 9 23 6 30
-3 9 -5 9 -5 0z"/>
<path d="M4681 3154 c0 -11 3 -14 6 -6 3 7 2 16 -1 19 -3 4 -6 -2 -5 -13z"/>
<path d="M1029 3397 c-26 -21 -29 -45 -10 -99 67 -193 105 -295 114 -305 17
-23 75 -16 92 10 13 20 13 30 2 68 -30 96 -110 305 -125 322 -17 20 -50 22
-73 4z m76 -84 c17 -42 23 -83 11 -83 -6 0 -1 -8 11 -18 11 -9 29 -42 38 -72
10 -30 22 -63 26 -72 13 -25 11 -48 -4 -48 -6 0 -24 33 -39 73 -15 39 -38 103
-52 141 -14 38 -26 75 -26 82 0 20 27 17 35 -3z"/>
<path d="M5366 3324 c-10 -27 -7 -38 26 -78 l31 -38 19 48 c22 58 21 49 2 68
-20 21 -70 21 -78 0z"/>
<path d="M2062 3962 c-7 -12 -10 -28 -6 -34 5 -7 7 -26 6 -43 -2 -21 0 -27 8
-19 6 6 10 35 8 65 -3 50 -4 52 -16 31z"/>
<path d="M4693 3753 c9 -2 25 -2 35 0 9 3 1 5 -18 5 -19 0 -27 -2 -17 -5z"/>
<path d="M4845 3750 c-3 -5 -1 -10 4 -10 6 0 11 5 11 10 0 6 -2 10 -4 10 -3 0
-8 -4 -11 -10z"/>
<path d="M4610 3738 c0 -5 14 -8 30 -8 17 0 30 4 30 10 0 5 -13 8 -30 7 -16
-1 -30 -5 -30 -9z"/>
<path d="M4765 3740 c3 -5 8 -10 11 -10 2 0 4 5 4 10 0 6 -5 10 -11 10 -5 0
-7 -4 -4 -10z"/>
<path d="M4540 3730 c0 -13 20 -13 40 0 12 8 9 10 -12 10 -16 0 -28 -4 -28
-10z"/>
<path d="M1890 3672 c6 -13 14 -21 18 -18 3 4 -2 14 -12 24 -18 16 -18 16 -6
-6z"/>
<path d="M4980 3671 l-25 -7 24 -6 c22 -6 71 5 71 17 0 7 -39 5 -70 -4z"/>
<path d="M1994 2917 c3 -10 6 -25 6 -33 0 -8 5 -14 11 -14 12 0 2 40 -14 55
-7 7 -8 4 -3 -8z"/>
<path d="M1939 2895 c-6 -46 -5 -54 12 -58 16 -4 18 -1 13 21 -7 29 -23 52
-25 37z"/>
<path d="M2020 2850 c0 -5 4 -10 9 -10 6 0 13 5 16 10 3 6 -1 10 -9 10 -9 0
-16 -4 -16 -10z"/>
<path d="M1560 2670 c0 -5 -7 -10 -15 -10 -8 0 -15 -5 -15 -11 0 -6 6 -9 14
-6 24 9 86 -15 86 -33 0 -9 9 -25 20 -35 11 -10 20 -23 19 -29 0 -7 -2 -7 -5
-1 -5 12 -84 7 -84 -5 0 -4 11 -6 24 -5 18 2 23 -1 19 -12 -5 -12 -7 -12 -14
-1 -5 8 -9 9 -9 2 0 -6 7 -17 15 -24 12 -10 15 -9 16 6 0 11 3 14 6 6 2 -6 9
-10 14 -6 5 3 9 -5 9 -18 0 -19 -2 -20 -11 -8 -8 12 -10 12 -7 1 5 -19 30 -22
52 -6 12 9 18 28 19 59 2 36 -3 50 -22 68 l-24 23 23 -38 c17 -29 20 -41 11
-50 -8 -8 -11 -6 -11 9 0 12 -9 29 -20 39 -11 10 -20 23 -20 30 0 6 -19 21
-42 33 -38 20 -39 22 -13 17 22 -4 26 -3 15 5 -19 13 -50 13 -50 0z m130 -166
c0 -8 -5 -12 -10 -9 -6 4 -8 11 -5 16 9 14 15 11 15 -7z"/>
<path d="M1494 2631 c13 -14 14 -21 6 -26 -7 -4 -15 -3 -19 4 -4 6 -21 14 -39
17 -26 5 -32 3 -32 -11 0 -14 6 -15 33 -10 17 4 29 4 25 0 -4 -4 15 -19 44
-32 48 -22 52 -22 69 -7 14 13 16 20 8 30 -6 8 -15 11 -20 8 -5 -3 -6 3 -2 12
5 14 2 16 -14 12 -11 -3 -28 1 -38 8 -28 20 -41 17 -21 -5z"/>
<path d="M1845 2582 c-41 -20 -95 -65 -95 -79 0 -4 14 -32 31 -61 l30 -53 29
21 c51 36 80 36 168 -4 119 -54 203 -45 271 28 24 26 24 26 6 60 -10 19 -26
44 -36 57 l-17 22 -27 -21 c-39 -31 -87 -28 -163 10 -81 39 -143 45 -197 20z"/>
<path d="M1175 2550 c-71 -23 -135 -74 -172 -137 -22 -37 -28 -62 -31 -129 -4
-76 -2 -89 23 -139 35 -72 94 -116 255 -193 151 -71 185 -103 177 -166 -8 -55
-44 -86 -101 -86 -33 0 -49 6 -70 26 -24 25 -28 38 -31 104 l-1 25 -128 3
-129 3 5 -74 c12 -191 137 -297 351 -297 135 0 217 30 281 100 50 55 67 98 73
185 14 177 -61 276 -262 348 -117 42 -142 55 -169 87 -34 41 -35 89 -2 127 21
24 32 28 76 28 69 0 100 -32 100 -106 l0 -50 128 3 127 3 -4 55 c-8 122 -77
227 -179 272 -70 31 -235 35 -317 8z"/>
<path d="M5173 2505 c-73 -35 -133 -67 -133 -71 0 -23 26 -74 38 -74 15 0 142
31 230 56 59 17 58 14 19 104 l-22 49 -132 -64z"/>
<path d="M3380 2182 c0 -317 -2 -371 -16 -390 -29 -42 -65 -52 -184 -52 l-110
0 0 -115 0 -115 103 0 c199 1 324 36 392 111 62 69 65 96 65 536 l0 393 -125
0 -125 0 0 -368z"/>
<path d="M4884 2504 c3 -9 6 -22 6 -30 0 -8 7 -14 15 -14 7 0 18 -7 23 -16 8
-15 10 -15 15 0 5 11 3 15 -5 10 -8 -5 -9 0 -5 15 8 34 -2 51 -30 51 -19 0
-24 -4 -19 -16z"/>
<path d="M4957 2433 c-4 -3 -7 -11 -7 -17 0 -6 5 -5 12 2 6 6 9 14 7 17 -3 3
-9 2 -12 -2z"/>
<path d="M4972 2394 c-6 -11 -22 -16 -50 -16 -41 1 -62 -11 -42 -23 5 -3 10
-1 10 4 0 6 5 11 11 11 5 0 7 -4 4 -10 -3 -5 1 -10 9 -10 9 0 16 5 16 10 0 6
5 10 11 10 5 0 7 -4 4 -10 -3 -5 -2 -10 2 -10 5 0 17 14 26 30 10 17 16 30 13
30 -3 0 -9 -7 -14 -16z"/>
<path d="M1725 2391 c-22 -7 -33 -41 -13 -41 10 0 9 -3 -1 -9 -12 -8 -12 -12
-2 -25 8 -9 10 -16 5 -16 -5 0 -8 -21 -6 -47 4 -67 -6 -77 -75 -79 -157 -3
-212 -7 -208 -14 3 -5 20 -12 38 -15 17 -4 46 -17 62 -30 17 -12 47 -30 68
-40 20 -9 37 -21 37 -25 0 -5 9 -6 20 -3 11 3 17 9 14 14 -3 5 3 6 12 2 13 -5
16 -2 11 9 -4 12 -1 14 14 11 14 -4 20 -1 18 8 -3 17 9 74 24 109 14 35 15 37
27 113 14 82 7 93 -45 78z m42 -23 c-3 -8 -6 -5 -6 6 -1 11 2 17 5 13 3 -3 4
-12 1 -19z m-10 -40 c-3 -8 -6 -5 -6 6 -1 11 2 17 5 13 3 -3 4 -12 1 -19z"/>
<path d="M4904 2328 c-3 -4 2 -8 10 -8 8 0 17 4 20 8 3 5 -2 9 -10 9 -8 0 -17
-4 -20 -9z"/>
<path d="M1912 2315 c-95 -29 -150 -104 -153 -205 -2 -99 -12 -91 104 -88
l102 3 3 55 c4 61 22 90 58 90 35 0 56 -39 52 -96 -4 -64 -29 -82 -137 -94
-154 -17 -201 -67 -201 -212 0 -121 36 -188 114 -209 57 -15 118 -3 175 36
l50 33 10 -29 10 -29 107 0 c106 0 106 0 99 23 -5 12 -11 155 -14 317 -6 319
-7 320 -65 365 -68 52 -216 71 -314 40z m166 -493 c3 -34 -2 -47 -22 -67 -29
-28 -67 -32 -90 -9 -35 34 -8 93 49 110 54 17 60 14 63 -34z"/>
<path d="M2525 2321 c-79 -20 -145 -78 -170 -150 -22 -65 -21 -399 1 -464 40
-119 191 -182 344 -143 79 20 126 57 160 122 23 45 25 59 28 230 4 213 -7 270
-64 334 -61 67 -189 97 -299 71z m133 -370 c3 -214 -1 -231 -42 -231 -50 1
-51 6 -51 212 0 106 3 201 7 211 6 14 17 17 45 15 l38 -3 3 -204z"/>
<path d="M3850 2315 c-61 -19 -113 -65 -142 -122 -22 -46 -23 -58 -23 -253 0
-226 4 -244 64 -313 41 -46 114 -72 206 -71 95 0 149 18 200 65 69 64 77 99
73 342 l-3 204 -30 48 c-45 72 -115 108 -219 112 -52 2 -97 -3 -126 -12z m150
-181 c6 -15 9 -106 8 -212 l-3 -187 -28 -9 c-19 -7 -34 -7 -45 0 -15 10 -17
36 -20 210 -1 109 0 204 2 211 3 7 21 13 41 13 29 0 37 -5 45 -26z"/>
<path d="M4475 2323 c-60 -13 -93 -30 -131 -65 -51 -47 -67 -90 -68 -175 0
-51 5 -70 30 -109 34 -56 80 -82 198 -113 103 -28 120 -40 119 -88 -3 -87
-113 -83 -129 5 -4 20 -10 39 -14 42 -5 3 -52 4 -105 2 l-98 -3 6 -54 c10 -97
59 -164 141 -191 63 -21 215 -24 269 -5 52 18 107 67 129 117 19 44 26 143 13
185 -21 68 -83 116 -186 145 -126 35 -153 53 -147 101 4 34 44 59 80 50 26 -7
44 -39 50 -87 3 -25 4 -25 103 -25 l100 0 -1 57 c-2 99 -62 174 -161 204 -44
13 -154 17 -198 7z"/>
<path d="M5058 2316 c-79 -28 -124 -76 -152 -159 -23 -68 -23 -361 0 -438 21
-69 81 -132 144 -150 60 -18 196 -17 240 0 54 22 98 59 119 99 16 32 41 124
41 152 0 6 -47 10 -109 10 l-110 0 -3 -47 c-3 -40 -7 -50 -30 -63 -25 -13 -31
-13 -55 0 -27 15 -28 20 -31 98 l-3 82 172 0 171 0 -4 123 c-3 80 -10 135 -20
159 -25 56 -92 116 -151 133 -62 18 -169 19 -219 1z m146 -162 c11 -10 16 -34
16 -75 l0 -60 -52 3 -53 3 -3 52 c-2 42 1 56 17 72 25 25 54 27 75 5z"/>
<path d="M1780 2299 c0 -11 4 -18 10 -14 5 3 7 12 3 20 -7 21 -13 19 -13 -6z"/>
<path d="M5450 2272 c0 -5 7 -9 15 -9 8 0 12 4 9 9 -3 4 -9 8 -15 8 -5 0 -9
-4 -9 -8z"/>
<path d="M5505 2270 c-13 -6 -15 -9 -5 -9 8 0 22 4 30 9 18 12 2 12 -25 0z"/>
<path d="M1380 2179 c0 -5 5 -7 10 -4 6 3 10 8 10 11 0 2 -4 4 -10 4 -5 0 -10
-5 -10 -11z"/>
<path d="M2943 1790 c0 -41 2 -58 4 -37 2 20 2 54 0 75 -2 20 -4 3 -4 -38z"/>
<path d="M2931 1579 c1 -111 14 -240 19 -189 1 14 2 29 1 34 -1 4 -4 65 -7
134 -3 70 -7 128 -9 131 -3 2 -5 -47 -4 -110z"/>
<path d="M2082 1510 c0 -19 2 -27 5 -17 2 9 2 25 0 35 -3 9 -5 1 -5 -18z"/>
<path d="M1578 1516 c-10 -7 -18 -17 -18 -22 0 -4 5 -3 12 4 14 14 32 16 24 3
-3 -5 1 -14 9 -21 13 -11 15 -9 11 11 -3 13 -5 27 -5 32 -1 11 -14 8 -33 -7z"/>
<path d="M2351 1484 c0 -11 3 -14 6 -6 3 7 2 16 -1 19 -3 4 -6 -2 -5 -13z"/>
<path d="M1590 1450 c0 -5 5 -10 11 -10 5 0 7 5 4 10 -3 6 -8 10 -11 10 -2 0
-4 -4 -4 -10z"/>
<path d="M2092 1415 c0 -16 2 -22 5 -12 2 9 2 23 0 30 -3 6 -5 -1 -5 -18z"/>
<path d="M2102 1345 c0 -16 2 -22 5 -12 2 9 2 23 0 30 -3 6 -5 -1 -5 -18z"/>
<path d="M2940 1335 c0 -15 4 -24 10 -20 6 3 10 12 10 20 0 8 -4 17 -10 20 -6
4 -10 -5 -10 -20z"/>
<path d="M2116 1200 c7 -167 -32 -149 307 -144 161 3 336 9 390 14 54 6 120
10 148 10 l51 0 -34 42 -33 42 -3 -27 c-4 -36 -24 -44 -105 -42 -68 2 -86 11
-87 43 0 21 -19 13 -54 -22 -19 -18 -47 -35 -63 -38 -45 -6 -115 15 -123 37
-7 19 -7 19 -15 -4 -4 -13 -10 -19 -14 -13 -10 16 -34 17 -60 3 -32 -18 -40
-6 -47 69 -9 87 -24 113 -22 37 0 -31 -1 -60 -5 -63 -3 -3 -23 -8 -44 -10 -29
-4 -45 0 -67 18 -57 45 -115 108 -120 130 -3 13 -3 -24 0 -82z"/>
<path d="M2941 1244 c0 -11 3 -14 6 -6 3 7 2 16 -1 19 -3 4 -6 -2 -5 -13z"/>
<path d="M3330 1225 c0 -19 2 -35 4 -35 2 0 6 16 8 35 2 19 0 35 -4 35 -4 0
-8 -16 -8 -35z"/>
<path d="M4187 1153 c-4 -18 -10 -46 -13 -62 -3 -16 -2 -31 3 -34 15 -10 83 4
77 15 -4 6 -1 14 6 18 16 10 5 40 -14 40 -9 0 -20 -9 -26 -20 -16 -31 -26 -24
-22 14 6 47 -3 69 -11 29z"/>
<path d="M3345 1150 c3 -5 8 -10 11 -10 2 0 4 5 4 10 0 6 -5 10 -11 10 -5 0
-7 -4 -4 -10z"/>
<path d="M3342 1094 c1 -9 9 -19 16 -22 9 -3 13 2 10 14 -1 9 -9 19 -16 22 -9
3 -13 -2 -10 -14z"/>
<path d="M3020 1089 c0 -5 9 -9 20 -9 11 0 20 2 20 4 0 2 -9 6 -20 9 -11 3
-20 1 -20 -4z"/>
<path d="M3712 968 c-5 -7 -8 -30 -7 -50 2 -26 -1 -38 -9 -38 -15 0 -36 -42
-36 -70 0 -11 -4 -20 -10 -20 -16 0 -12 -18 10 -40 22 -22 28 -56 8 -43 -7 4
-22 8 -33 8 -13 0 -20 6 -19 18 2 23 -21 22 -45 -4 -15 -17 -18 -27 -10 -45 5
-14 6 -47 4 -74 -3 -28 -7 -72 -10 -100 -3 -37 -1 -50 8 -50 8 0 13 10 13 21
-1 12 5 24 12 26 7 3 12 -5 12 -21 0 -16 6 -26 15 -26 8 0 15 5 15 10 0 6 13
10 30 10 33 0 53 27 48 63 -3 30 11 54 23 36 6 -11 12 -10 27 6 11 11 29 28
41 37 15 13 21 29 21 58 0 22 -3 40 -7 40 -5 0 -7 36 -7 80 l2 80 -27 0 c-47
0 -56 14 -27 42 18 16 25 30 20 41 -7 20 -47 23 -62 5z m43 -18 c-3 -5 -13
-10 -21 -10 -8 0 -14 5 -14 10 0 6 9 10 21 10 11 0 17 -4 14 -10z m-30 -99 c3
-5 1 -12 -5 -16 -5 -3 -10 1 -10 9 0 18 6 21 15 7z m-95 -191 c0 -5 -10 -10
-22 -9 -22 0 -22 1 -3 9 11 5 21 9 23 9 1 1 2 -3 2 -9z"/>
<path d="M3658 943 c-20 -23 -68 -100 -68 -109 0 -16 69 72 70 88 0 9 6 18 13
21 6 2 9 7 6 11 -3 3 -13 -2 -21 -11z"/>
<path d="M3421 884 c0 -11 3 -14 6 -6 3 7 2 16 -1 19 -3 4 -6 -2 -5 -13z"/>
<path d="M4010 859 c0 -9 10 -23 23 -32 21 -14 23 -13 24 5 1 11 -3 18 -10 15
-7 -2 -17 3 -24 12 -11 15 -12 15 -13 0z"/>
<path d="M3460 755 c0 -8 7 -15 15 -15 8 0 15 -4 15 -10 0 -5 7 -7 15 -4 8 4
15 3 15 -1 0 -3 -7 -13 -15 -21 -8 -9 -15 -22 -15 -30 0 -10 8 -6 25 12 28 30
30 41 11 67 -16 21 -66 23 -66 2z"/>
<path d="M4065 690 c3 -5 8 -10 11 -10 2 0 4 5 4 10 0 6 -5 10 -11 10 -5 0 -7
-4 -4 -10z"/>
<path d="M4110 680 c0 -5 9 -19 19 -29 12 -12 15 -21 9 -23 -6 -2 -12 -17 -13
-33 -1 -27 2 -30 33 -33 47 -3 59 -12 38 -28 -9 -6 -13 -15 -8 -18 6 -3 12 1
16 9 7 19 26 19 26 0 0 -8 -4 -15 -10 -15 -19 0 -10 -18 11 -23 12 -3 18 -10
15 -16 -7 -11 29 -25 43 -17 5 4 14 -6 19 -21 10 -27 10 -27 8 7 -3 40 -24
100 -36 100 -4 0 -10 9 -13 21 -4 17 -12 20 -38 17 -29 -3 -33 0 -41 27 -4 17
-6 35 -4 42 6 15 -11 28 -46 37 -17 4 -28 2 -28 -4z"/>
<path d="M3480 640 c0 -5 5 -10 11 -10 5 0 7 5 4 10 -3 6 -8 10 -11 10 -2 0
-4 -4 -4 -10z"/>
<path d="M3491 566 c-1 -44 18 -117 34 -128 5 -4 16 -8 24 -8 12 0 12 3 -1 18
-16 18 -44 92 -51 132 -3 17 -5 13 -6 -14z"/>
<path d="M4090 591 c0 -5 5 -13 10 -16 6 -3 10 -2 10 4 0 5 -4 13 -10 16 -5 3
-10 2 -10 -4z"/>
<path d="M3418 496 c-18 -49 -13 -56 38 -56 21 0 24 3 18 28 -4 15 -12 32 -19
37 -6 6 -14 16 -16 23 -2 7 -12 -7 -21 -32z"/>
<path d="M4166 505 c27 -38 66 -76 71 -71 2 2 -20 27 -49 57 -43 45 -47 48
-22 14z"/>
<path d="M1254 505 c-9 -14 -14 -28 -11 -31 3 -3 13 8 22 25 19 37 12 41 -11
6z"/>
<path d="M3488 423 c7 -3 16 -2 19 1 4 3 -2 6 -13 5 -11 0 -14 -3 -6 -6z"/>
<path d="M1176 374 c-5 -14 -4 -15 9 -4 17 14 19 20 6 20 -5 0 -12 -7 -15 -16z"/>
</g>
</svg>
